<svg id="Capa_1" enable-background="new 0 0 512 512" height="512" viewBox="0 0 512 512" width="512" xmlns="http://www.w3.org/2000/svg"><path d="m492.632 400.416c-12.67-22.905-31.088-42.365-53.263-56.276l-84.365-52.925c3.242-4.202 6.224-8.615 8.919-13.215h6.077c30.327 0 55-24.673 55-55v-69c0-27.467-20.239-50.295-46.587-54.356-11.751-56.81-62.173-99.644-122.413-99.644-68.925 0-125 56.075-125 125v90c0 28.666 9.706 55.104 25.995 76.215l-84.365 52.925c-22.174 13.911-40.592 33.371-53.263 56.276s-19.367 48.849-19.367 75.025v21.559c0 8.284 6.716 15 15 15h482c8.284 0 15-6.716 15-15v-21.559c0-26.176-6.697-52.12-19.368-75.025zm-141.632-272.416h-20.714c-17.703 0-34.859-7.353-47.069-20.172l-16.354-17.173c-2.825-2.966-6.739-4.647-10.835-4.655-.009 0-.018 0-.027 0-4.085 0-7.995 1.667-10.824 4.616l-16.384 17.077c-12.194 12.711-29.291 20.001-46.905 20.001h-20.888v-2.694c0-52.383 42.617-95 95-95s95 42.617 95 95zm-169.113 29.694c25.744 0 50.73-10.654 68.553-29.232l5.52-5.753 5.532 5.81c17.846 18.735 42.92 29.481 68.794 29.481h20.714v57c0 11.598-2.093 22.716-5.915 33h-68.085c-8.284 0-15 6.716-15 15s6.716 15 15 15h50.039c-17.416 19.616-42.806 32-71.039 32-52.383 0-95-42.617-95-95v-57.306zm74.113 182.306c23.633 0 45.753-6.594 64.622-18.036-3.487 32.578-31.134 58.036-64.622 58.036s-61.135-25.458-64.622-58.036c18.869 11.442 40.989 18.036 64.622 18.036zm139-186v69c0 11.417-7.696 21.064-18.17 24.044 2.716-10.231 4.17-20.97 4.17-32.044v-83.443c8.284 4.077 14 12.603 14 22.443zm87 328h-452v-6.559c0-43.296 21.896-82.88 58.573-105.888l72.844-45.698c4.481 48.247 45.186 86.145 94.583 86.145s90.102-37.898 94.584-86.144l72.844 45.698c36.676 23.008 58.572 62.592 58.572 105.887z"/><path d="m416 422h-80c-8.284 0-15 6.716-15 15s6.716 15 15 15h80c8.284 0 15-6.716 15-15s-6.716-15-15-15z"/></svg>