<svg id="Layer_1" enable-background="new 0 0 512 512" height="512" viewBox="0 0 512 512" width="512" xmlns="http://www.w3.org/2000/svg"><path d="m417.331 387.234c-16.473-5.199-55.296-14.654-81.482-20.873 11.545-11.205 20.411-22.14 27.422-33.665 2.892-4.755 5.43-9.586 7.664-14.515h36.003c27.99 0 50.763-22.691 50.763-50.581v-58.375c0-27.658-22.398-50.19-50.067-50.564v-8.839c-.001-82.612-67.519-149.822-150.508-149.822h-.729c-82.99 0-150.507 67.21-150.507 149.821v8.821h-.056c-27.99 0-50.762 22.691-50.762 50.582v58.375c0 27.891 22.772 50.581 50.762 50.581h35.231c2.233 4.93 4.77 9.762 7.661 14.515 7.004 11.515 15.86 22.44 27.391 33.636-25.981 6.183-64.881 15.673-81.449 20.903-37.56 11.855-61.829 42.008-61.829 76.819v32.947c0 8.284 6.716 15 15 15h416.319c8.284 0 15-6.716 15-15v-32.948c.001-34.81-24.267-64.963-61.827-76.818zm-93.18 7.19-23.818 27.791-8.851-21.905c5.291-2.473 10.327-5.491 14.987-9.033.338-.257.668-.512 1.003-.768 3.683.858 9.542 2.227 16.679 3.915zm-68.152 13.807c2.081 0 4.158-.089 6.227-.245l16.118 39.887-22.348 26.076-22.342-26.072 16.119-39.89c2.07.156 4.146.244 6.226.244zm81.641-91.126c-10.01 16.456-25.223 31.966-49.327 50.29-9.191 6.988-20.667 10.836-32.314 10.836-11.815 0-22.989-3.747-32.315-10.837-20.54-15.615-34.608-29.186-44.517-43.041l31.679 5.435c5.257 12.79 17.844 21.822 32.507 21.822h25.296c19.373 0 35.133-15.761 35.133-35.133v-.56c0-19.373-15.761-35.133-35.133-35.133h-25.296c-13.482 0-25.207 7.637-31.096 18.808l-49.089-8.421c-2.767-10.138-4.084-21.053-4.024-33.171v-35.783l44.122-44.122h102.312l47.28 47.28-.003 32.78c.114 22.966-4.72 41.697-15.215 58.95zm-99.421-.628v-.56c0-2.831 2.303-5.133 5.133-5.133h25.296c2.831 0 5.133 2.303 5.133 5.133v.56c0 2.831-2.303 5.133-5.133 5.133h-25.296c-2.83.001-5.133-2.302-5.133-5.133zm-79.005-136.757c1.872-51.772 44.567-93.315 96.788-93.315 25.825 0 50.134 10.088 68.453 28.406 18.243 18.244 28.32 42.431 28.401 68.138l-30.46-30.46c-2.813-2.813-6.628-4.393-10.606-4.393h-114.738c-3.978 0-7.793 1.58-10.606 4.393zm268.486 29.504v58.375c0 11.349-9.314 20.581-20.763 20.581h-23.623v-99.538h23.623c11.449.001 20.763 9.234 20.763 20.582zm-171.303-179.224h.729c65.489 0 118.942 52.212 120.471 116.969-5.938-19.94-16.782-38.224-31.929-53.372-23.984-23.984-55.828-37.193-89.666-37.193-55.36 0-102.544 35.648-119.822 85.193 4.265-62.248 56.55-111.597 120.217-111.597zm-150.562 258.181c-11.448 0-20.762-9.233-20.762-20.581v-58.375c0-11.349 9.314-20.582 20.762-20.582h23.308l.316 99.538zm99.694 103.096c4.661 3.543 9.698 6.561 14.99 9.035l-8.852 21.906-23.845-27.826c7.255-1.72 13.138-3.097 16.657-3.918.351.267.696.534 1.05.803zm-142.688 72.775c0-26.037 21.106-41.975 40.859-48.21 10.47-3.305 31.159-8.595 51.376-13.56l68.312 79.718h-160.547zm386.318 17.948h-160.553l68.303-79.698c20.28 4.97 40.965 10.25 51.392 13.541 19.752 6.234 40.857 22.173 40.857 48.21v17.947z"/></svg>