<?xml version="1.0" encoding="iso-8859-1"?>
<!-- Generator: Adobe Illustrator 19.0.0, SVG Export Plug-In . SVG Version: 6.00 Build 0)  -->
<svg version="1.1" id="Capa_1" xmlns="http://www.w3.org/2000/svg" xmlns:xlink="http://www.w3.org/1999/xlink" x="0px" y="0px"
	 viewBox="0 0 480 480" style="enable-background:new 0 0 480 480;" xml:space="preserve">
<g>
	<g>
		<g>
			<path d="M456,464V56c0-4.418-3.582-8-8-8h-80c-4.418,0-8,3.582-8,8v408h-16V152c0-4.418-3.582-8-8-8h-80c-4.418,0-8,3.582-8,8
				v312h-16V248c0-4.418-3.582-8-8-8h-80c-4.418,0-8,3.582-8,8v216h-16V344c0-4.418-3.582-8-8-8H32c-4.418,0-8,3.582-8,8v120H0v16
				h480v-16H456z M104,464H40V352h64V464z M216,464h-64V256h64V464z M328,464h-64V160h64V464z M440,464h-64V64h64V464z"/>
			<polygon points="69.656,245.656 288,27.312 288,72 304,72 304,0 232,0 232,16 276.688,16 58.344,234.344 			"/>
		</g>
	</g>
</g>
<g>
</g>
<g>
</g>
<g>
</g>
<g>
</g>
<g>
</g>
<g>
</g>
<g>
</g>
<g>
</g>
<g>
</g>
<g>
</g>
<g>
</g>
<g>
</g>
<g>
</g>
<g>
</g>
<g>
</g>
</svg>
