<?xml version="1.0" encoding="iso-8859-1"?>
<!-- Generator: Adobe Illustrator 19.0.0, SVG Export Plug-In . SVG Version: 6.00 Build 0)  -->
<svg version="1.1" id="Capa_1" xmlns="http://www.w3.org/2000/svg" xmlns:xlink="http://www.w3.org/1999/xlink" x="0px" y="0px"
	 viewBox="0 0 512 512" style="enable-background:new 0 0 512 512;" xml:space="preserve">
<g>
	<g>
		<g>
			<path d="M437.333,341.333c-5.888,0-10.667,4.779-10.667,10.667c0,5.888,4.779,10.667,10.667,10.667
				c5.888,0,10.667-4.779,10.667-10.667C448,346.112,443.221,341.333,437.333,341.333z"/>
			<path d="M394.667,341.333c-5.888,0-10.667,4.779-10.667,10.667c0,5.888,4.779,10.667,10.667,10.667s10.667-4.779,10.667-10.667
				C405.333,346.112,400.555,341.333,394.667,341.333z"/>
			<path d="M74.667,170.667c-17.643,0-32,14.357-32,32c0,17.643,14.357,32,32,32c17.643,0,32-14.357,32-32
				C106.667,185.024,92.309,170.667,74.667,170.667z M74.667,213.333c-5.888,0-10.667-4.779-10.667-10.667S68.779,192,74.667,192
				s10.667,4.779,10.667,10.667S80.555,213.333,74.667,213.333z"/>
			<path d="M74.667,298.667c-17.643,0-32,14.357-32,32c0,17.643,14.357,32,32,32c17.643,0,32-14.357,32-32
				C106.667,313.024,92.309,298.667,74.667,298.667z M74.667,341.333c-5.888,0-10.667-4.779-10.667-10.667S68.779,320,74.667,320
				s10.667,4.779,10.667,10.667S80.555,341.333,74.667,341.333z"/>
			<path d="M309.333,341.333c-5.888,0-10.667,4.779-10.667,10.667c0,5.888,4.779,10.667,10.667,10.667S320,357.888,320,352
				C320,346.112,315.221,341.333,309.333,341.333z"/>
			<path d="M352,341.333c-5.888,0-10.667,4.779-10.667,10.667c0,5.888,4.779,10.667,10.667,10.667
				c5.888,0,10.667-4.779,10.667-10.667C362.667,346.112,357.888,341.333,352,341.333z"/>
			<path d="M512,96V53.333C512,23.936,488.064,0,458.667,0H53.333C23.936,0,0,23.936,0,53.333V96
				c0,17.493,8.597,32.939,21.675,42.667C8.597,148.395,0,163.84,0,181.333V224c0,17.493,8.597,32.939,21.675,42.667
				C8.597,276.395,0,291.84,0,309.333V352c0,29.397,23.936,53.333,53.333,53.333H192v21.333h-10.667
				c-5.888,0-10.667,4.779-10.667,10.667V448H160c-5.888,0-10.667,4.779-10.667,10.667v10.667h-96
				c-5.888,0-10.667,4.779-10.667,10.667c0,5.888,4.779,10.667,10.667,10.667h96v10.667c0,5.888,4.779,10.667,10.667,10.667h85.333
				c5.888,0,10.667-4.779,10.667-10.667v-10.667h96c5.888,0,10.667-4.779,10.667-10.667c0-5.888-4.779-10.667-10.667-10.667h-96
				v-10.667c0-5.888-4.779-10.667-10.667-10.667h-10.667v-10.667c0-5.888-4.779-10.667-10.667-10.667h-10.667v-21.333h245.333
				C488.064,405.333,512,381.397,512,352v-42.667c0-17.493-8.597-32.939-21.675-42.667C503.403,256.939,512,241.493,512,224v-42.667
				c0-17.493-8.597-32.939-21.675-42.667C503.403,128.939,512,113.493,512,96z M224,469.333h10.667v21.333h-64v-21.333h10.667
				c5.888,0,10.667-4.779,10.667-10.667V448h21.333v10.667C213.333,464.555,218.112,469.333,224,469.333z M490.667,309.333V352
				c0,17.643-14.357,32-32,32H53.333c-17.643,0-32-14.357-32-32v-42.667c0-17.643,14.357-32,32-32h405.333
				C476.309,277.333,490.667,291.691,490.667,309.333z M490.667,181.333V224c0,17.643-14.357,32-32,32H53.333
				c-17.643,0-32-14.357-32-32v-42.667c0-17.643,14.357-32,32-32h405.333C476.309,149.333,490.667,163.691,490.667,181.333z
				 M490.667,96c0,17.643-14.357,32-32,32H53.333c-17.643,0-32-14.357-32-32V53.333c0-17.643,14.357-32,32-32h405.333
				c17.643,0,32,14.357,32,32V96z"/>
			<path d="M309.333,85.333c-5.888,0-10.667,4.779-10.667,10.667s4.779,10.667,10.667,10.667S320,101.888,320,96
				S315.221,85.333,309.333,85.333z"/>
			<path d="M352,85.333c-5.888,0-10.667,4.779-10.667,10.667s4.779,10.667,10.667,10.667c5.888,0,10.667-4.779,10.667-10.667
				S357.888,85.333,352,85.333z"/>
			<path d="M394.667,85.333C388.779,85.333,384,90.112,384,96s4.779,10.667,10.667,10.667s10.667-4.779,10.667-10.667
				S400.555,85.333,394.667,85.333z"/>
			<path d="M309.333,213.333c-5.888,0-10.667,4.779-10.667,10.667s4.779,10.667,10.667,10.667S320,229.888,320,224
				S315.221,213.333,309.333,213.333z"/>
			<path d="M437.333,85.333c-5.888,0-10.667,4.779-10.667,10.667s4.779,10.667,10.667,10.667c5.888,0,10.667-4.779,10.667-10.667
				S443.221,85.333,437.333,85.333z"/>
			<path d="M394.667,213.333c-5.888,0-10.667,4.779-10.667,10.667s4.779,10.667,10.667,10.667s10.667-4.779,10.667-10.667
				S400.555,213.333,394.667,213.333z"/>
			<path d="M352,213.333c-5.888,0-10.667,4.779-10.667,10.667s4.779,10.667,10.667,10.667c5.888,0,10.667-4.779,10.667-10.667
				S357.888,213.333,352,213.333z"/>
			<path d="M437.333,213.333c-5.888,0-10.667,4.779-10.667,10.667s4.779,10.667,10.667,10.667c5.888,0,10.667-4.779,10.667-10.667
				S443.221,213.333,437.333,213.333z"/>
			<path d="M74.667,42.667c-17.643,0-32,14.357-32,32c0,17.643,14.357,32,32,32c17.643,0,32-14.357,32-32
				C106.667,57.024,92.309,42.667,74.667,42.667z M74.667,85.333C68.779,85.333,64,80.555,64,74.667S68.779,64,74.667,64
				s10.667,4.779,10.667,10.667S80.555,85.333,74.667,85.333z"/>
		</g>
	</g>
</g>
<g>
</g>
<g>
</g>
<g>
</g>
<g>
</g>
<g>
</g>
<g>
</g>
<g>
</g>
<g>
</g>
<g>
</g>
<g>
</g>
<g>
</g>
<g>
</g>
<g>
</g>
<g>
</g>
<g>
</g>
</svg>
