<svg id="Capa_1" enable-background="new 0 0 512 512" height="512" viewBox="0 0 512 512" width="512" xmlns="http://www.w3.org/2000/svg"><g><path d="m0 152h31v30h-31v150h31v30h-31v150h512v-150h-31v-30h31v-150h-31v-30h31v-152h-512zm482 330h-452v-90h452zm-31-120h-390v-30h390zm31-60h-452v-90h452zm-31-120h-390v-30h390zm-421-152h452v92h-452z"/><path d="m61 62h30v30h-30z"/><path d="m121 62h30v30h-30z"/><path d="m181 62h30v30h-30z"/><path d="m301 62h150v30h-150z"/><path d="m61 242h30v30h-30z"/><path d="m121 242h30v30h-30z"/><path d="m181 242h30v30h-30z"/><path d="m301 242h150v30h-150z"/><path d="m61 422h30v30h-30z"/><path d="m121 422h30v30h-30z"/><path d="m181 422h30v30h-30z"/><path d="m301 422h150v30h-150z"/></g></svg>