<?xml version="1.0" encoding="iso-8859-1"?>
<!-- Generator: Adobe Illustrator 19.0.0, SVG Export Plug-In . SVG Version: 6.00 Build 0)  -->
<svg version="1.1" id="Capa_1" xmlns="http://www.w3.org/2000/svg" xmlns:xlink="http://www.w3.org/1999/xlink" x="0px" y="0px"
	 viewBox="0 0 512 512" style="enable-background:new 0 0 512 512;" xml:space="preserve">
<g>
	<g>
		<path d="M256,0C115.041,0,0,115.049,0,256c0,140.959,115.049,256,256,256c140.959,0,256-115.049,256-256
			C512,115.041,396.951,0,256,0z M256,482C131.383,482,30,380.617,30,256S131.383,30,256,30s226,101.383,226,226
			S380.617,482,256,482z"/>
	</g>
</g>
<g>
	<g>
		<path d="M391,256c0,74.439-60.561,135-135,135s-135-60.561-135-135H91c0,90.981,74.019,165,165,165s165-74.019,165-165H391z"/>
	</g>
</g>
<g>
	<g>
		<rect x="181" y="151" width="30" height="60"/>
	</g>
</g>
<g>
	<g>
		<rect x="301" y="151" width="30" height="60"/>
	</g>
</g>
<g>
</g>
<g>
</g>
<g>
</g>
<g>
</g>
<g>
</g>
<g>
</g>
<g>
</g>
<g>
</g>
<g>
</g>
<g>
</g>
<g>
</g>
<g>
</g>
<g>
</g>
<g>
</g>
<g>
</g>
</svg>
