<svg id="Capa_1" enable-background="new 0 0 512 512" height="512" viewBox="0 0 512 512" width="512" xmlns="http://www.w3.org/2000/svg"><g><path d="m478.47 202.299v-93.059-52.69c0-31.182-25.364-56.55-56.54-56.55h-332.88c-31.182 0-56.55 25.368-56.55 56.55v52.69 14.119c-19.932 17.829-32.5 43.728-32.5 72.511v208.22c0 4.142 3.358 7.5 7.5 7.5s7.5-3.358 7.5-7.5v-208.22c0-45.375 36.915-82.29 82.29-82.29h67.83c45.375 0 82.29 36.915 82.29 82.29 0 4.142 3.358 7.5 7.5 7.5h179.18c34.688 0 62.91 28.221 62.91 62.91v167.81c0 34.689-28.222 62.91-62.91 62.91h-356.18c-34.689 0-62.91-28.221-62.91-62.91 0-4.142-3.358-7.5-7.5-7.5s-7.5 3.358-7.5 7.5c0 42.96 34.95 77.91 77.91 77.91h356.18c42.96 0 77.91-34.95 77.91-77.91v-167.81c0-26.477-13.286-49.896-33.53-63.981zm-216.346-13.929c-3.844-50.153-45.882-89.79-97.004-89.79h-67.83c-18.184 0-35.215 5.019-49.79 13.738v-3.078c0-22.911 18.639-41.55 41.55-41.55h317.88c4.143 0 7.5-3.358 7.5-7.5s-3.357-7.5-7.5-7.5h-317.88c-16.413 0-31.21 7.035-41.55 18.241v-14.381c0-22.911 18.639-41.55 41.55-41.55h332.88c22.905 0 41.54 18.639 41.54 41.55v14.246c-6.496-7.013-14.826-12.419-24.445-15.466-3.952-1.252-8.164.938-9.415 4.886-1.25 3.949.938 8.164 4.886 9.414 17.331 5.488 28.975 21.406 28.975 39.61v84.9c-9.073-3.709-18.988-5.77-29.38-5.77z"/></g></svg>