<?xml version="1.0" encoding="iso-8859-1"?>
<!-- Generator: Adobe Illustrator 19.0.0, SVG Export Plug-In . SVG Version: 6.00 Build 0)  -->
<svg version="1.1" id="Capa_1" xmlns="http://www.w3.org/2000/svg" xmlns:xlink="http://www.w3.org/1999/xlink" x="0px" y="0px"
	 viewBox="0 0 485.656 485.656" style="enable-background:new 0 0 485.656 485.656;" xml:space="preserve">
<g>
	<g>
		<path d="M477.656,66.822c-4.418,0-8,3.582-8,8v368h-456c-4.418,0-8,3.582-8,8s3.582,8,8,8h464c4.418,0,8-3.582,8-8v-376
			C485.656,70.404,482.074,66.822,477.656,66.822z"/>
	</g>
</g>
<g>
	<g>
		<path d="M149.656,234.822h-96c-4.418,0-8,3.582-8,8v176c0,4.418,3.582,8,8,8h96c4.418,0,8-3.582,8-8v-176
			C157.656,238.404,154.074,234.822,149.656,234.822z M141.656,410.822h-80v-160h80V410.822z"/>
	</g>
</g>
<g>
	<g>
		<path d="M293.656,138.822h-96c-4.418,0-8,3.582-8,8v272c0,4.418,3.582,8,8,8h96c4.418,0,8-3.582,8-8v-272
			C301.656,142.404,298.074,138.822,293.656,138.822z M285.656,410.822h-80v-256h80V410.822z"/>
	</g>
</g>
<g>
	<g>
		<path d="M437.656,58.822h-96c-4.418,0-8,3.582-8,8v352c0,4.418,3.582,8,8,8h96c4.418,0,8-3.582,8-8v-352
			C445.656,62.404,442.074,58.822,437.656,58.822z M429.656,410.822h-80v-336h80V410.822z"/>
	</g>
</g>
<g>
	<g>
		<path d="M246.489,26.878c-0.562-0.06-1.128-0.06-1.689,0l-72,8c-4.392,0.479-7.565,4.427-7.086,8.82
			c0.197,1.807,1.003,3.493,2.286,4.78l26.344,26.344l-60.688,60.688l-18.344-18.344c-3.124-3.123-8.188-3.123-11.312,0l-96,96
			c-4.418,0-8,1.238-8,5.656s3.582,8,8,5.656c3.124,3.123,8.188,3.123,11.312,0l90.344-90.344L128,152.478
			c3.124,3.123,8.188,3.123,11.312,0l66.344-66.344L232,112.478c3.13,3.119,8.195,3.11,11.314-0.02
			c1.283-1.287,2.089-2.974,2.286-4.78l8-72C254.067,31.285,250.883,27.345,246.489,26.878z M231.544,89.39l-40.456-40.456
			l45.512-5.056L231.544,89.39z"/>
	</g>
</g>
<g>
	<g>
		<path d="M85.656,362.822c-4.418,0-8,3.582-8,8v16c0,4.418,3.582,8,8,8s8-3.582,8-8v-16
			C93.656,366.404,90.074,362.822,85.656,362.822z"/>
	</g>
</g>
<g>
	<g>
		<path d="M85.656,298.822c-4.418,0-8,3.582-8,8v32c0,4.418,3.582,8,8,8s8-3.582,8-8v-32
			C93.656,302.404,90.074,298.822,85.656,298.822z"/>
	</g>
</g>
<g>
	<g>
		<path d="M229.656,362.822c-4.418,0-8,3.582-8,8v16c0,4.418,3.582,8,8,8s8-3.582,8-8v-16
			C237.656,366.404,234.074,362.822,229.656,362.822z"/>
	</g>
</g>
<g>
	<g>
		<path d="M229.656,250.822c-4.418,0-8,3.582-8,8v80c0,4.418,3.582,8,8,8s8-3.582,8-8v-80
			C237.656,254.404,234.074,250.822,229.656,250.822z"/>
	</g>
</g>
<g>
	<g>
		<path d="M373.656,362.822c-4.418,0-8,3.582-8,8v16c0,4.418,3.582,8,8,8s8-3.582,8-8v-16
			C381.656,366.404,378.074,362.822,373.656,362.822z"/>
	</g>
</g>
<g>
	<g>
		<path d="M373.656,170.822c-4.418,0-8,3.582-8,8v160c0,4.418,3.582,8,8,8s8-3.582,8-8v-160
			C381.656,174.404,378.074,170.822,373.656,170.822z"/>
	</g>
</g>
<g>
</g>
<g>
</g>
<g>
</g>
<g>
</g>
<g>
</g>
<g>
</g>
<g>
</g>
<g>
</g>
<g>
</g>
<g>
</g>
<g>
</g>
<g>
</g>
<g>
</g>
<g>
</g>
<g>
</g>
</svg>
