<svg id="Capa_1" enable-background="new 0 0 512 512" height="512" viewBox="0 0 512 512" width="512" xmlns="http://www.w3.org/2000/svg"><g><path d="m480.751 204.331h-90.015v277.669h-29.981v-212.271h-90.015v212.271h-29.981v-269.755h-90.015v269.755h-29.481v-149.571h-90.014v149.571h-31.249v30h512v-30h-31.249zm-389.504 158.098v30h-29.981v-30zm-29.981 119.571v-59.571h29.981v59.571zm149.476-239.755v30h-29.981v-30zm-29.981 239.755v-179.755h29.981v179.755zm149.977-182.271v30h-29.981v-30zm-29.981 182.271v-122.271h29.981v122.271zm149.977-247.669v30h-29.981v-30zm-29.981 247.669v-187.669h29.981v187.669z"/><path d="m422.204 0v30h38.569l-138.231 138.236-114.515-114.52-207.923 207.931 21.231 21.207 186.692-186.698 114.515 114.519 159.441-159.446v38.707h30.017v-89.936z"/></g></svg>