<svg id="Capa_1" enable-background="new 0 0 512 512" height="512" viewBox="0 0 512 512" width="512" xmlns="http://www.w3.org/2000/svg"><g><g><path d="m327.983 50.854h-155.794c-4.143 0-7.5 3.357-7.5 7.5s3.357 7.5 7.5 7.5h155.794c4.143 0 7.5-3.357 7.5-7.5s-3.357-7.5-7.5-7.5z"/><path d="m327.983 94.756h-155.794c-4.143 0-7.5 3.357-7.5 7.5s3.357 7.5 7.5 7.5h155.794c4.143 0 7.5-3.357 7.5-7.5s-3.357-7.5-7.5-7.5z"/><path d="m471.525 259.381h-44.525v-20.938c0-27.596-22.451-50.046-50.047-50.046h-84.32c-27.596 0-50.047 22.45-50.047 50.046v20.938h-44.525c-22.394 0-40.475 18.157-40.475 40.475v171.523c0 22.317 18.157 40.475 40.475 40.475h273.465c22.317 0 40.475-18.157 40.475-40.475v-32.5c0-4.143-3.357-7.5-7.5-7.5s-7.5 3.357-7.5 7.5v32.5c0 14.047-11.428 25.475-25.475 25.475h-273.465c-14.047 0-25.475-11.428-25.475-25.475v-106.298c11.819 14.573 29.599 24.125 49.593 24.906v11.451c0 15.113 12.296 27.409 27.409 27.409s27.409-12.296 27.409-27.409v-11.399h115.592v11.399c0 15.113 12.296 27.409 27.409 27.409s27.409-12.296 27.409-27.409v-11.451c19.994-.781 37.774-10.333 49.593-24.906v38.735c0 4.143 3.357 7.5 7.5 7.5s7.5-3.357 7.5-7.5v-103.962c0-22.31-18.073-40.473-40.475-40.473zm-213.939-20.938c0-19.324 15.722-35.046 35.047-35.046h84.32c19.325 0 35.047 15.722 35.047 35.046v20.938h-15.619v-20.938c0-10.711-8.715-19.426-19.428-19.426h-84.32c-10.712 0-19.427 8.715-19.427 19.426v20.938h-15.62zm30.62 20.938v-20.938c0-2.44 1.985-4.426 4.427-4.426h84.32c2.441 0 4.428 1.985 4.428 4.426v20.938zm-26.209 142.057c0 6.843-5.566 12.409-12.409 12.409s-12.409-5.566-12.409-12.409v-26.811c0-6.843 5.566-12.409 12.409-12.409s12.409 5.566 12.409 12.409zm170.41 0c0 6.843-5.566 12.409-12.409 12.409s-12.409-5.566-12.409-12.409v-18.822c0-.026.001-.052.001-.077s-.001-.052-.001-.077v-7.834c0-6.843 5.566-12.409 12.409-12.409s12.409 5.566 12.409 12.409zm15-26.466v-.344c0-15.113-12.296-27.409-27.409-27.409s-27.409 12.296-27.409 27.409v.411h-115.592v-.411c0-15.113-12.296-27.409-27.409-27.409s-27.409 12.296-27.409 27.409v.344c-27.581-1.389-49.593-24.264-49.593-52.184v-22.934c0-14.067 11.401-25.474 25.475-25.474h273.465c14.038 0 25.475 11.371 25.475 25.475v22.933c-.001 27.92-22.013 50.795-49.594 52.184z"/><path d="m147.917 496.854h-110.828c-12.18 0-22.089-9.909-22.089-22.089v-360.253c0-1.619.173-3.211.511-4.756h68.255c14.251 0 25.845-11.594 25.845-25.844v-68.255c1.545-.337 3.137-.511 4.756-.511h254.288c12.18 0 22.089 9.909 22.089 22.089v128.682c0 4.143 3.357 7.5 7.5 7.5s7.5-3.357 7.5-7.5v-128.682c0-20.451-16.638-37.089-37.089-37.089h-254.289c-9.907 0-19.222 3.857-26.227 10.862l-77.277 77.278c-7.005 7.005-10.862 16.319-10.862 26.226v360.253c0 20.451 16.638 37.089 37.089 37.089h110.828c4.143 0 7.5-3.357 7.5-7.5s-3.357-7.5-7.5-7.5zm-53.307-471.101v58.159c0 5.979-4.865 10.844-10.845 10.844h-58.158z"/></g></g></svg>