<svg id="Capa_1" enable-background="new 0 0 512 512" height="512" viewBox="0 0 512 512" width="512" xmlns="http://www.w3.org/2000/svg"><g><g><path d="m273.667 203.153h145.762c4.143 0 7.5-3.358 7.5-7.5s-3.357-7.5-7.5-7.5h-145.762c-4.143 0-7.5 3.358-7.5 7.5s3.357 7.5 7.5 7.5z"/><path d="m273.667 160.104h145.762c4.143 0 7.5-3.358 7.5-7.5s-3.357-7.5-7.5-7.5h-145.762c-4.143 0-7.5 3.358-7.5 7.5s3.357 7.5 7.5 7.5z"/><path d="m199.477 214.373c13.798 0 25.023-11.226 25.023-25.023v-110.881c0-13.798-11.226-25.023-25.023-25.023h-89.383c-13.798 0-25.022 11.226-25.022 25.023v110.881c0 13.798 11.225 25.023 25.022 25.023zm-89.383-145.928h89.383c5.527 0 10.023 4.497 10.023 10.023v89.613c-6.988-7.947-15.664-14.306-25.474-18.587 3.887-5.684 6.166-12.552 6.166-19.944 0-19.528-15.884-35.416-35.407-35.416s-35.407 15.888-35.407 35.416c0 7.392 2.279 14.26 6.166 19.944-9.809 4.281-18.484 10.639-25.473 18.586v-89.611c0-5.527 4.496-10.024 10.023-10.024zm24.284 61.106c0-11.257 9.154-20.416 20.407-20.416s20.407 9.159 20.407 20.416c0 11.258-9.154 20.417-20.407 20.417s-20.407-9.16-20.407-20.417zm-33.073 64.609c6.675-16.156 20.175-28.356 36.884-33.337 4.954 2.641 10.602 4.144 16.597 4.144s11.643-1.503 16.597-4.144c16.71 4.981 30.209 17.181 36.884 33.338-1.706 3.104-5.005 5.213-8.79 5.213h-89.383c-3.784-.001-7.084-2.11-8.789-5.214z"/><path d="m504.5 387.431c4.143 0 7.5-3.358 7.5-7.5v-76.904c0-16.497-13.139-29.974-29.5-30.538v-145.077c0-10.866-4.23-21.081-11.911-28.763l-86.622-86.651c-7.682-7.684-17.895-11.916-28.758-11.916h-285.042c-22.424.001-40.667 18.249-40.667 40.679v169.027c0 4.142 3.357 7.5 7.5 7.5s7.5-3.358 7.5-7.5v-169.027c0-14.159 11.514-25.678 25.667-25.678h285.042c2.131 0 4.223.259 6.239.76v77.257c0 15.478 12.589 28.069 28.062 28.069h77.229c.501 2.017.76 4.11.76 6.243v145.05h-285.212c-6.875 0-13.426-2.957-17.973-8.113l-12.176-13.807c-7.395-8.383-18.046-13.191-29.224-13.191h-92.35c-16.852 0-30.564 13.711-30.564 30.565v212.587c0 17.322 14.092 31.414 31.414 31.414h449.172c17.322 0 31.414-14.092 31.414-31.414v-65.509c0-4.142-3.357-7.5-7.5-7.5s-7.5 3.358-7.5 7.5v65.509c0 9.051-7.363 16.414-16.414 16.414h-449.172c-9.051 0-16.414-7.363-16.414-16.414v-212.587c0-8.583 6.982-15.565 15.565-15.565h92.35c6.875 0 13.426 2.958 17.974 8.113l12.176 13.806c7.394 8.383 18.045 13.191 29.223 13.191h299.147c8.583 0 15.565 6.982 15.565 15.565v76.904c0 4.143 3.357 7.501 7.5 7.501zm-128.052-294.331v-67.406l80.449 80.476h-67.387c-7.202-.001-13.062-5.864-13.062-13.07z"/></g></g></svg>